<svg id="Layer_1" data-name="Layer 1" xmlns="http://www.w3.org/2000/svg" viewBox="0 0 534.02 641"><defs><style>.cls-1{fill:#d1d1d1;}.cls-2{fill:none;stroke:#d1d1d1;stroke-miterlimit:10;stroke-width:6px;}</style></defs><title>bucketPink</title><path class="cls-1" d="M504.16,231.15l-12,46L422.07,544.46l-4.57,17.47A18.74,18.74,0,0,1,412.93,574c-34.38,5.49-86.54,9-144.92,9s-110.54-3.51-144.92-9a18.69,18.69,0,0,1-4.57-12.05L114,544.46,43.9,277.14l-12-46c14.75-2.47,31.94-4.69,51.07-6.61,50.6-5.11,115-8.16,185.08-8.16,71.06,0,136.24,3.14,187.16,8.35C473.48,226.62,489.93,228.78,504.16,231.15Z"/><path class="cls-2" d="M455.4,217.26c0,2.5-.07,5-.23,7.47-50.92-5.21-116.1-8.35-187.16-8.35-70.09,0-134.48,3.05-185.08,8.16-.14-2.43-.21-4.85-.21-7.28C82.72,131.52,166.14,62,269.06,62S455.4,131.52,455.4,217.26Z"/></svg>